<svg width="1440" height="1268" viewBox="0 0 1440 1268" fill="none" xmlns="http://www.w3.org/2000/svg">
<g clip-path="url(#clip0)">
<rect width="1440" height="1268" fill="white"/>
<g filter="url(#filter0_f)">
<circle r="142.073" transform="matrix(-0.939726 0.341928 0.341928 0.939726 986.616 721.897)" fill="#85BE6B"/>
<circle r="142.073" transform="matrix(-0.939726 0.341928 0.341928 0.939726 1351.59 739.857)" fill="#85BE6B"/>
<circle r="142.073" transform="matrix(-0.939726 0.341928 0.341928 0.939726 1413.22 566.673)" fill="#F1CC5B"/>
<circle r="142.073" transform="matrix(-0.939726 0.341928 0.341928 0.939726 784.088 614.875)" fill="#F1CC5B"/>
<circle r="142.073" transform="matrix(-0.939726 0.341928 0.341928 0.939726 1229.91 527.071)" fill="#13ABED"/>
<circle r="142.073" transform="matrix(-0.939726 0.341928 0.341928 0.939726 1183.57 695.116)" fill="#85BE6B"/>
<circle r="142.073" transform="matrix(-0.939726 0.341928 0.341928 0.939726 1085.98 657.394)" fill="#85BE6B"/>
</g>
<g filter="url(#filter1_f)">
<circle r="164.653" transform="matrix(-0.999673 -0.025554 -0.025554 0.999673 38.1046 747.108)" fill="#F5B91E"/>
<circle r="164.653" transform="matrix(-0.999673 -0.025554 -0.025554 0.999673 564.051 760.552)" fill="#E4A9B2"/>
<circle r="164.653" transform="matrix(-0.999673 -0.025554 -0.025554 0.999673 -134.968 545.807)" fill="#38ABEC" fill-opacity="0.65"/>
<circle r="164.653" transform="matrix(-0.999673 -0.025554 -0.025554 0.999673 383.121 640.118)" fill="#FBEBC3"/>
<circle r="164.653" transform="matrix(-0.999673 -0.025554 -0.025554 0.999673 261.894 801.726)" fill="#F8C85A"/>
<circle r="164.653" transform="matrix(-0.999673 -0.025554 -0.025554 0.999673 172.631 719.664)" fill="#E4A9B2"/>
</g>
<g opacity="0.6" filter="url(#filter2_f)">
<circle cx="1000.02" cy="541.465" r="164.653" fill="#F5B91E"/>
<circle cx="609.653" cy="705.653" r="164.653" fill="#3DD092"/>
<circle cx="473.902" cy="541.465" r="164.653" fill="#2DADF4"/>
<circle cx="1178.18" cy="344.653" r="164.653" fill="#79DBFF"/>
<circle cx="657.85" cy="425.694" r="164.653" fill="#A8FFCC"/>
<circle cx="774.908" cy="590.347" r="164.653" fill="#005CC8"/>
<circle cx="866.239" cy="510.593" r="164.653" fill="#2DADF4"/>
</g>
</g>
<defs>
<filter id="filter0_f" x="278" y="20.9829" width="1641.31" height="1224.96" filterUnits="userSpaceOnUse" color-interpolation-filters="sRGB">
<feFlood flood-opacity="0" result="BackgroundImageFix"/>
<feBlend mode="normal" in="SourceGraphic" in2="BackgroundImageFix" result="shape"/>
<feGaussianBlur stdDeviation="162" result="effect1_foregroundBlur"/>
</filter>
<filter id="filter1_f" x="-527.775" y="153" width="1484.63" height="1041.53" filterUnits="userSpaceOnUse" color-interpolation-filters="sRGB">
<feFlood flood-opacity="0" result="BackgroundImageFix"/>
<feBlend mode="normal" in="SourceGraphic" in2="BackgroundImageFix" result="shape"/>
<feGaussianBlur stdDeviation="112" result="effect1_foregroundBlur"/>
</filter>
<filter id="filter2_f" x="85.2483" y="-44" width="1481.59" height="1138.31" filterUnits="userSpaceOnUse" color-interpolation-filters="sRGB">
<feFlood flood-opacity="0" result="BackgroundImageFix"/>
<feBlend mode="normal" in="SourceGraphic" in2="BackgroundImageFix" result="shape"/>
<feGaussianBlur stdDeviation="112" result="effect1_foregroundBlur"/>
</filter>
<clipPath id="clip0">
<rect width="1440" height="1268" fill="white"/>
</clipPath>
</defs>
</svg>
