<svg width="789" height="312" viewBox="0 0 789 312" fill="none" xmlns="http://www.w3.org/2000/svg">
<path d="M0 20C0 8.95431 8.95431 0 20 0H769C780.046 0 789 8.95431 789 20V292C789 303.046 780.046 312 769 312H20C8.95431 312 0 303.046 0 292V20Z" fill="url(#paint0_linear)"/>
<path d="M478 92.5C482.142 92.5 485.5 95.8608 485.5 100.005V205.995C485.5 210.14 482.141 213.5 477.998 213.5C477.716 213.5 477.492 213.724 477.492 214C477.492 214.276 477.716 214.5 477.992 214.5C482.694 214.5 486.5 210.692 486.5 205.995V100.005C486.5 95.3086 482.694 91.5 478 91.5H468C467.724 91.5 467.5 91.7239 467.5 92C467.5 92.2761 467.724 92.5 468 92.5H478Z" fill="white"/>
<path d="M313 91.5C308.306 91.5 304.5 95.3086 304.5 100.005V205.995C304.5 210.692 308.306 214.5 313.002 214.5C313.284 214.5 313.508 214.276 313.508 214C313.508 213.724 313.284 213.5 313.008 213.5C308.859 213.5 305.5 210.14 305.5 205.995V100.005C305.5 95.8608 308.858 92.5 313 92.5H323C323.276 92.5 323.5 92.2761 323.5 92C323.5 91.7239 323.276 91.5 323 91.5H313Z" fill="white"/>
<path fill-rule="evenodd" clip-rule="evenodd" d="M478 207.2L313.8 207L314 100.8L478.2 101L478 207.2ZM477.8 207L478 101.2L314.2 101L314 206.8L477.8 207Z" fill="white"/>
<rect x="313" y="91.5" width="165" height="1" fill="white"/>
<path fill-rule="evenodd" clip-rule="evenodd" d="M396 98C396.552 98 397 97.5523 397 97C397 96.4477 396.552 96 396 96C395.448 96 395 96.4477 395 97C395 97.5523 395.448 98 396 98Z" fill="white"/>
<path fill-rule="evenodd" clip-rule="evenodd" d="M377.8 214V213.8H378H413H413.2V214V215.5C413.2 216.441 412.44 217.2 411.496 217.2H379.504C378.561 217.2 377.8 216.443 377.8 215.5V214ZM412.8 214L413 214.2H412.8V214ZM378.2 214.2H412.8V215.5C412.8 216.22 412.22 216.8 411.496 216.8H379.504C378.781 216.8 378.2 216.222 378.2 215.5V214.2ZM378.2 214.2H378L378.2 214V214.2Z" fill="white"/>
<path fill-rule="evenodd" clip-rule="evenodd" d="M284 213.5H505V214.5H284V213.5Z" fill="white"/>
<rect x="313" y="220" width="165" height="1" fill="white"/>
<path d="M283.08 213.5H282.67L282.59 213.902C282.577 213.965 282.56 214.073 282.543 214.22C282.421 215.298 282.523 216.51 283.026 217.671C283.199 218.071 283.416 218.449 283.68 218.8C284.275 219.594 285.217 220.147 286.403 220.512C287.101 220.726 287.842 220.863 288.582 220.939C288.841 220.966 289.081 220.983 289.298 220.992C289.429 220.998 289.525 221 289.58 221H315.5V220H289.58C289.407 220 289.092 219.986 288.684 219.944C288.004 219.875 287.325 219.749 286.697 219.556C285.695 219.247 284.928 218.797 284.48 218.2C284.264 217.913 284.086 217.603 283.944 217.273C283.521 216.297 283.432 215.252 283.537 214.332C283.55 214.215 283.563 214.135 283.57 214.098L283.08 214.5H312.5V213.5H283.08Z" fill="white"/>
<path d="M506 214.5L505.51 214.098C505.517 214.135 505.53 214.215 505.543 214.332C505.648 215.252 505.559 216.297 505.136 217.273C504.993 217.603 504.816 217.913 504.6 218.2C504.152 218.797 503.385 219.247 502.383 219.556C501.754 219.749 501.076 219.875 500.396 219.944C499.988 219.986 499.673 220 499.5 220H474V221H499.5C499.554 221 499.65 220.998 499.782 220.992C499.999 220.983 500.239 220.966 500.498 220.939C501.238 220.863 501.979 220.726 502.677 220.512C503.863 220.147 504.805 219.594 505.4 218.8C505.664 218.449 505.88 218.071 506.054 217.671C506.557 216.51 506.659 215.298 506.537 214.22C506.52 214.073 506.503 213.965 506.49 213.902L506.41 213.5H506H478V214.5H506Z" fill="white"/>
<defs>
<linearGradient id="paint0_linear" x1="0" y1="0" x2="704.62" y2="445.469" gradientUnits="userSpaceOnUse">
<stop stop-color="#1BA552"/>
<stop offset="1" stop-color="#F8C030"/>
</linearGradient>
</defs>
</svg>
