<svg width="789" height="624" viewBox="0 0 789 624" fill="none" xmlns="http://www.w3.org/2000/svg">
<path d="M0 20C0 8.9543 8.95431 0 20 0H769C780.046 0 789 8.95431 789 20V604C789 615.046 780.046 624 769 624H20C8.95431 624 0 615.046 0 604V20Z" fill="url(#paint0_linear)"/>
<path d="M478 248.5C482.142 248.5 485.5 251.861 485.5 256.005V361.995C485.5 366.14 482.141 369.5 477.998 369.5C477.716 369.5 477.492 369.724 477.492 370C477.492 370.276 477.716 370.5 477.992 370.5C482.694 370.5 486.5 366.692 486.5 361.995V256.005C486.5 251.309 482.694 247.5 478 247.5H468C467.724 247.5 467.5 247.724 467.5 248C467.5 248.276 467.724 248.5 468 248.5H478Z" fill="white"/>
<path d="M313 247.5C308.306 247.5 304.5 251.309 304.5 256.005V361.995C304.5 366.692 308.306 370.5 313.002 370.5C313.284 370.5 313.508 370.276 313.508 370C313.508 369.724 313.284 369.5 313.008 369.5C308.859 369.5 305.5 366.14 305.5 361.995V256.005C305.5 251.861 308.858 248.5 313 248.5H323C323.276 248.5 323.5 248.276 323.5 248C323.5 247.724 323.276 247.5 323 247.5H313Z" fill="white"/>
<path fill-rule="evenodd" clip-rule="evenodd" d="M478 363.2L313.8 363L314 256.8L478.2 257L478 363.2ZM477.8 363L478 257.2L314.2 257L314 362.8L477.8 363Z" fill="white"/>
<rect x="313" y="247.5" width="165" height="1" fill="white"/>
<path fill-rule="evenodd" clip-rule="evenodd" d="M396 254C396.552 254 397 253.552 397 253C397 252.448 396.552 252 396 252C395.448 252 395 252.448 395 253C395 253.552 395.448 254 396 254Z" fill="white"/>
<path fill-rule="evenodd" clip-rule="evenodd" d="M377.8 370V369.8H378H413H413.2V370V371.5C413.2 372.441 412.44 373.2 411.496 373.2H379.504C378.561 373.2 377.8 372.443 377.8 371.5V370ZM412.8 370L413 370.2H412.8V370ZM378.2 370.2H412.8V371.5C412.8 372.22 412.22 372.8 411.496 372.8H379.504C378.781 372.8 378.2 372.222 378.2 371.5V370.2ZM378.2 370.2H378L378.2 370V370.2Z" fill="white"/>
<path fill-rule="evenodd" clip-rule="evenodd" d="M284 369.5H505V370.5H284V369.5Z" fill="white"/>
<rect x="313" y="376" width="165" height="1" fill="white"/>
<path d="M283.08 369.5H282.67L282.59 369.902C282.577 369.965 282.56 370.073 282.543 370.22C282.421 371.298 282.523 372.51 283.026 373.671C283.199 374.071 283.416 374.449 283.68 374.8C284.275 375.594 285.217 376.147 286.403 376.512C287.101 376.726 287.842 376.863 288.582 376.939C288.841 376.966 289.081 376.983 289.298 376.992C289.429 376.998 289.525 377 289.58 377H315.5V376H289.58C289.407 376 289.092 375.986 288.684 375.944C288.004 375.875 287.325 375.749 286.697 375.556C285.695 375.247 284.928 374.797 284.48 374.2C284.264 373.913 284.086 373.603 283.944 373.273C283.521 372.297 283.432 371.252 283.537 370.332C283.55 370.215 283.563 370.135 283.57 370.098L283.08 370.5H312.5V369.5H283.08Z" fill="white"/>
<path d="M506 370.5L505.51 370.098C505.517 370.135 505.53 370.215 505.543 370.332C505.648 371.252 505.559 372.297 505.136 373.273C504.993 373.603 504.816 373.913 504.6 374.2C504.152 374.797 503.385 375.247 502.383 375.556C501.754 375.749 501.076 375.875 500.396 375.944C499.988 375.986 499.673 376 499.5 376H474V377H499.5C499.554 377 499.65 376.998 499.782 376.992C499.999 376.983 500.239 376.966 500.498 376.939C501.238 376.863 501.979 376.726 502.677 376.512C503.863 376.147 504.805 375.594 505.4 374.8C505.664 374.449 505.88 374.071 506.054 373.671C506.557 372.51 506.659 371.298 506.537 370.22C506.52 370.073 506.503 369.965 506.49 369.902L506.41 369.5H506H478V370.5H506Z" fill="white"/>
<defs>
<linearGradient id="paint0_linear" x1="0" y1="0" x2="903.032" y2="294.662" gradientUnits="userSpaceOnUse">
<stop stop-color="#5359EA"/>
<stop offset="1" stop-color="#0094FF"/>
</linearGradient>
</defs>
</svg>
