<svg width="38" height="38" viewBox="0 0 38 38" fill="none" xmlns="http://www.w3.org/2000/svg">
<g opacity="0.4">
<path fill-rule="evenodd" clip-rule="evenodd" d="M9.50004 12.563C7.79313 12.563 6.41061 11.1889 6.41061 9.50002C6.41061 7.80345 7.79313 6.42931 9.50004 6.42931C11.1992 6.42931 12.5817 7.80345 12.5817 9.50002C12.5817 11.1889 11.1992 12.563 9.50004 12.563M17.3704 9.26972C16.5439 7.3582 15.3931 5.83052 14.0415 4.78648C12.6899 3.73477 11.1374 3.16669 9.50004 3.16669H9.49232C6.22524 3.16669 3.28256 5.44669 1.62972 9.26972C1.56793 9.41557 1.56793 9.58446 1.62972 9.72265C3.28256 13.5457 6.22524 15.8334 9.49232 15.8334H9.50004C12.7748 15.8334 15.7175 13.5457 17.3704 9.72265C17.4322 9.58446 17.4322 9.41557 17.3704 9.26972" fill="#E78360"/>
</g>
<g opacity="0.6">
<path fill-rule="evenodd" clip-rule="evenodd" d="M32.6007 3.49123C32.6007 2.43831 33.4557 1.58331 34.5086 1.58331C35.5615 1.58331 36.4165 2.43831 36.4165 3.49123C36.4165 4.54415 35.5615 5.39915 34.5086 5.39915C33.4557 5.39915 32.6007 4.54415 32.6007 3.49123ZM29.5527 11.6844L31.8406 8.73231L31.809 8.74815C31.9356 8.57398 31.9594 8.35231 31.8723 8.1544C31.786 7.95648 31.5952 7.8219 31.3902 7.80606C31.1756 7.78231 30.9627 7.87731 30.8352 8.05148L28.9202 10.5294L26.7265 8.80356C26.5919 8.70065 26.4335 8.66027 26.2752 8.6769C26.1177 8.70065 25.9752 8.78694 25.8794 8.9136L23.5368 11.9623L23.4885 12.0336C23.354 12.2861 23.4173 12.6107 23.6548 12.7856C23.7656 12.8569 23.8844 12.9044 24.019 12.9044C24.2018 12.9123 24.3752 12.8165 24.486 12.6669L26.4731 10.109L28.7294 11.804L28.8006 11.8507C29.054 11.9853 29.3706 11.9227 29.5527 11.6844ZM31.231 2.99272C31.1994 3.19064 31.1835 3.38855 31.1835 3.58647C31.1835 5.36772 32.6244 6.80776 34.3977 6.80776C34.5956 6.80776 34.7856 6.7848 34.9835 6.75314V13.1411C34.9835 15.8256 33.4002 17.4169 30.7085 17.4169H24.8589C22.1665 17.4169 20.5831 15.8256 20.5831 13.1411V7.28355C20.5831 4.59189 22.1665 2.99272 24.8589 2.99272H31.231Z" fill="#E78360"/>
</g>
<path fill-rule="evenodd" clip-rule="evenodd" d="M33.8098 25.9637C33.8098 26.958 34.0726 27.5441 34.6509 28.2194C35.0892 28.7169 35.2292 29.3556 35.2292 30.0485C35.2292 30.7406 35.0018 31.3976 34.5463 31.931C33.9499 32.5705 33.1088 32.9787 32.2504 33.0497C31.0064 33.1557 29.7617 33.245 28.5004 33.245C27.2384 33.245 25.9945 33.1916 24.7505 33.0497C23.8913 32.9787 23.0502 32.5705 22.4546 31.931C21.999 31.3976 21.7709 30.7406 21.7709 30.0485C21.7709 29.3556 21.9117 28.7169 22.3492 28.2194C22.9456 27.5441 23.1911 26.958 23.1911 25.9637V25.6265C23.1911 24.2949 23.5231 23.4242 24.2068 22.5719C25.2234 21.3288 26.8529 20.5833 28.465 20.5833H28.5358C30.1826 20.5833 31.8648 21.3647 32.8641 22.6612C33.5124 23.496 33.8098 24.33 33.8098 25.6265V25.9637ZM26.1834 34.8815C26.1834 34.4828 26.5492 34.3002 26.8876 34.2221C27.2833 34.1384 29.6949 34.1384 30.0907 34.2221C30.429 34.3002 30.7949 34.4828 30.7949 34.8815C30.7752 35.261 30.5525 35.5975 30.2449 35.8112C29.846 36.1221 29.3778 36.3191 28.8884 36.39C28.6178 36.4251 28.3518 36.4259 28.0906 36.39C27.6004 36.3191 27.1323 36.1221 26.7341 35.8104C26.4257 35.5975 26.2031 35.261 26.1834 34.8815Z" fill="#E78360"/>
<g opacity="0.8">
<path fill-rule="evenodd" clip-rule="evenodd" d="M7.42298 34.8554L14.3789 25.8601C14.7569 25.3751 14.8913 24.8142 14.7653 24.2432C14.6561 23.7241 14.3369 23.2305 13.858 22.856L12.6903 21.9284C11.6738 21.12 10.4137 21.2051 9.69121 22.1327L8.90993 23.1462C8.28335 23.9564 8.27682 23.9608 8.27118 23.9661C8.26562 23.9713 8.26091 23.9775 7.66661 24.7538L2.73532 31.1365C2.41609 31.5364 2.30688 32.0556 2.41609 32.5577L3.04615 35.2894C3.07975 35.4341 3.20576 35.5362 3.35698 35.5362L6.12925 35.5022C6.6333 35.4937 7.10375 35.2639 7.42298 34.8554ZM11.3047 34.0047H15.8252C16.2663 34.0047 16.625 34.368 16.625 34.8148C16.625 35.2625 16.2663 35.625 15.8252 35.625H11.3047C10.8637 35.625 10.505 35.2625 10.505 34.8148C10.505 34.368 10.8637 34.0047 11.3047 34.0047Z" fill="#E78360"/>
</g>
</svg>
