<svg width="38" height="38" viewBox="0 0 38 38" fill="none" xmlns="http://www.w3.org/2000/svg">
<path fill-rule="evenodd" clip-rule="evenodd" d="M25.6719 21.375C26.0044 21.375 26.2744 21.6397 26.2744 21.9665C26.2744 22.2926 26.0052 22.5573 25.6719 22.5573L24.3823 22.5581C23.312 22.5596 22.4412 23.4144 22.4412 24.4647V25.9366C22.4412 26.2626 22.1704 26.5281 21.8379 26.5281C21.5054 26.5281 21.2354 26.2626 21.2354 25.9366V24.4647C21.2354 22.763 22.647 21.3773 24.3815 21.3758L25.6712 21.375H25.6719ZM31.3505 21.3752H32.6116C34.3509 21.3752 35.7648 22.7617 35.7648 24.4673V25.9368C35.7648 26.2629 35.4957 26.5284 35.1624 26.5284C34.8299 26.5284 34.5599 26.2629 34.5599 25.9368V24.4673C34.5599 23.4138 33.6859 22.5568 32.6116 22.5568H31.3505C31.018 22.5568 30.748 22.2928 30.748 21.9668C30.748 21.64 31.018 21.3752 31.3505 21.3752ZM30.687 24.3379H26.3138C25.3132 24.348 24.5088 25.15 24.5175 26.132V27.1179C24.5199 27.2328 24.6141 27.3267 24.7313 27.3306H32.268C32.3859 27.3275 32.4801 27.2336 32.4841 27.1179V26.132C32.4849 25.6577 32.298 25.202 31.9608 24.8627C31.6259 24.5266 31.166 24.3379 30.687 24.3379ZM20.3949 28.5326H36.6059C36.9384 28.5326 37.2084 28.7974 37.2084 29.1242C37.2084 29.4502 36.9384 29.7142 36.6059 29.7142H35.7651V32.5322C35.7651 34.2385 34.3504 35.625 32.6119 35.625H31.3508C31.0175 35.625 30.7476 35.3603 30.7476 35.0334C30.7476 34.7074 31.0175 34.4427 31.3508 34.4427H32.6119C33.6862 34.4427 34.5602 33.5864 34.5602 32.5322V29.7142H32.4837V30.499C32.4916 31.4811 31.6881 32.2838 30.6866 32.2931H26.3134C25.3128 32.2838 24.5092 31.4811 24.5171 30.499V29.7142H22.4406V32.5353C22.4406 33.5856 23.3122 34.4403 24.3834 34.4419L25.6722 34.4427C26.0047 34.4427 26.2746 34.7074 26.2746 35.0334C26.2739 35.3603 26.0047 35.625 25.6714 35.625L24.3818 35.6242C22.6472 35.6227 21.2349 34.237 21.2349 32.5353V29.7142H20.3949C20.0624 29.7142 19.7917 29.4502 19.7917 29.1242C19.7917 28.7974 20.0624 28.5326 20.3949 28.5326Z" fill="#27B280"/>
<g opacity="0.4">
<path d="M14.1855 11.3367C13.9804 11.5355 13.8862 11.8228 13.9329 12.1047L14.6367 15.9997C14.6961 16.3298 14.5567 16.6639 14.2805 16.8547C14.0097 17.0526 13.6495 17.0763 13.3542 16.918L9.84791 15.0892C9.72599 15.0243 9.59062 14.9895 9.45208 14.9855H9.23754C9.16312 14.9966 9.09029 15.0204 9.02379 15.0568L5.5167 16.8942C5.34333 16.9813 5.14699 17.0122 4.95462 16.9813C4.48595 16.8927 4.17324 16.4462 4.25003 15.9751L4.95462 12.0801C5.00133 11.7959 4.90712 11.507 4.70208 11.3051L1.84337 8.53425C1.60428 8.30229 1.52116 7.95396 1.63041 7.63967C1.73649 7.32617 2.00724 7.09737 2.3342 7.04592L6.26878 6.47512C6.56803 6.44425 6.83087 6.26217 6.96545 5.993L8.6992 2.43841C8.74037 2.35925 8.79341 2.28641 8.85754 2.22466L8.92878 2.16925C8.96599 2.12808 9.00874 2.09404 9.05624 2.06633L9.14254 2.03466L9.27712 1.97925H9.61041C9.90808 2.01012 10.1701 2.18825 10.3071 2.45425L12.0638 5.993C12.1905 6.25187 12.4367 6.43158 12.7209 6.47512L16.6555 7.04592C16.988 7.09342 17.2658 7.323 17.3759 7.63967C17.4796 7.95712 17.3901 8.30546 17.1463 8.53425L14.1855 11.3367Z" fill="#27B280"/>
</g>
<g opacity="0.8">
<path fill-rule="evenodd" clip-rule="evenodd" d="M6.18292 20.5833H12.8179C15.2633 20.5833 16.625 21.9925 16.625 24.4071V32.585C16.625 35.0391 15.2633 36.4166 12.8179 36.4166H6.18292C3.77625 36.4166 2.375 35.0391 2.375 32.585V24.4071C2.375 21.9925 3.77625 20.5833 6.18292 20.5833ZM6.39664 24.2725V24.2646H8.76293C9.10414 24.2646 9.38122 24.5417 9.38122 24.8813C9.38122 25.2304 9.10414 25.5075 8.76293 25.5075H6.39664C6.05543 25.5075 5.77914 25.2304 5.77914 24.89C5.77914 24.5496 6.05543 24.2725 6.39664 24.2725ZM6.39664 29.0858H12.6033C12.9437 29.0858 13.2208 28.8087 13.2208 28.4683C13.2208 28.1279 12.9437 27.85 12.6033 27.85H6.39664C6.05543 27.85 5.77914 28.1279 5.77914 28.4683C5.77914 28.8087 6.05543 29.0858 6.39664 29.0858ZM6.39666 32.7037H12.6033C12.9192 32.6721 13.1575 32.4021 13.1575 32.0862C13.1575 31.7617 12.9192 31.4925 12.6033 31.4608H6.39666C6.15916 31.4371 5.92958 31.5479 5.80291 31.7537C5.67624 31.9517 5.67624 32.2129 5.80291 32.4187C5.92958 32.6167 6.15916 32.7354 6.39666 32.7037Z" fill="#27B280"/>
</g>
<path opacity="0.6" d="M22.8506 14L23.4443 12.1758H26.3311L26.9248 14H28.7373L25.9795 6H23.7998L21.0381 14H22.8506ZM23.874 10.8555L24.8584 7.82812H24.9209L25.9053 10.8555H23.874ZM29.7002 14H31.3916V11.1641H32.626L34.1416 14H36.0088L34.3096 10.8906C35.2197 10.5 35.7236 9.70703 35.7236 8.61328C35.7236 7.02344 34.6729 6 32.8564 6H29.7002V14ZM31.3916 9.80469V7.38281H32.5322C33.5088 7.38281 33.9814 7.81641 33.9814 8.61328C33.9814 9.40625 33.5088 9.80469 32.54 9.80469H31.3916Z" fill="#27B280"/>
</svg>
