<svg width="38" height="38" viewBox="0 0 38 38" fill="none" xmlns="http://www.w3.org/2000/svg">
<path fill-rule="evenodd" clip-rule="evenodd" d="M24.8031 20.5834H32.1893C34.881 20.5834 36.4168 22.1034 36.4168 24.803V32.1972C36.4168 34.8809 34.8889 36.4168 32.1972 36.4168H24.8031C22.1035 36.4168 20.5835 34.8809 20.5835 32.1972V24.803C20.5835 22.1034 22.1035 20.5834 24.8031 20.5834ZM29.1493 29.1572H31.3977C31.7618 29.1493 32.0547 28.8563 32.0547 28.4922C32.0547 28.128 31.7618 27.8351 31.3977 27.8351H29.1493V25.6026C29.1493 25.2384 28.8564 24.9455 28.4922 24.9455C28.1281 24.9455 27.8352 25.2384 27.8352 25.6026V27.8351H25.5947C25.4206 27.8351 25.2543 27.9063 25.1277 28.0251C25.0089 28.1518 24.9377 28.3172 24.9377 28.4922C24.9377 28.8563 25.2306 29.1493 25.5947 29.1572H27.8352V31.3976C27.8352 31.7618 28.1281 32.0547 28.4922 32.0547C28.8564 32.0547 29.1493 31.7618 29.1493 31.3976V29.1572Z" fill="#0066E0"/>
<g opacity="0.8">
<path d="M14.0203 21.2093C13.5461 21.0501 13.0473 20.9797 12.5478 20.9797C11.4474 20.9718 10.3794 21.3359 9.49987 22.0081C9.42862 21.9534 9.34154 21.9051 9.26237 21.8584C9.1832 21.8101 9.0407 21.6922 8.92195 21.6288L8.62112 21.4943C8.46279 21.4072 8.29733 21.3438 8.12237 21.2876C8.10654 21.2726 8.08279 21.256 8.05112 21.2409H8.00441C7.53654 21.0818 7.05362 20.9947 6.55487 20.9797H6.46779C6.24612 20.9797 6.02525 20.9947 5.80279 21.0272H5.70779C5.47029 21.0581 5.23358 21.1135 5.004 21.1926C2.05029 22.1593 0.997371 25.3655 1.89195 28.168C2.39862 29.6001 3.21483 30.8993 4.27566 31.9672C5.81862 33.4556 7.50566 34.7697 9.31779 35.8939L9.52362 36.0213L9.72154 35.9018C11.5273 34.7697 13.2049 33.4556 14.7336 31.9751C15.8015 30.9072 16.617 29.6001 17.1157 28.168C17.9952 25.3655 16.9423 22.1593 14.0203 21.2093V21.2093Z" fill="#0066E0"/>
</g>
<g opacity="0.6">
<path fill-rule="evenodd" clip-rule="evenodd" d="M31.792 6.51769C31.792 8.37786 30.309 9.86942 28.4596 9.86942C26.6102 9.86942 25.1273 8.37786 25.1273 6.51769C25.1273 4.65682 26.6102 3.16669 28.4596 3.16669C30.309 3.16669 31.792 4.65682 31.792 6.51769ZM28.4596 15.8334C25.7433 15.8334 23.4239 15.4027 23.4239 13.6802C23.4239 11.9569 25.7284 11.5106 28.4596 11.5106C31.176 11.5106 33.4954 11.9412 33.4954 13.6645C33.4954 15.387 31.1909 15.8334 28.4596 15.8334ZM33.216 6.57817C33.216 7.52644 32.9332 8.40982 32.437 9.14419C32.3859 9.21977 32.4313 9.32172 32.5213 9.33741C32.6454 9.3588 32.7737 9.37092 32.9041 9.37448C34.2048 9.40871 35.3723 8.56668 35.6949 7.299C36.1726 5.41602 34.7698 3.72554 32.9835 3.72554C32.7893 3.72554 32.6035 3.74622 32.4228 3.78329C32.398 3.789 32.3717 3.8004 32.3576 3.82251C32.3405 3.8496 32.3533 3.88596 32.3703 3.90949C32.9069 4.66596 33.216 5.58856 33.216 6.57817ZM35.3702 10.6975C36.2442 10.8693 36.8191 11.2201 37.0573 11.7299C37.2586 12.1484 37.2586 12.6339 37.0573 13.0517C36.693 13.8424 35.5184 14.0963 35.0619 14.1619C34.9676 14.1761 34.8917 14.0941 34.9017 13.9993C35.1349 11.8083 33.2798 10.7695 32.7999 10.5306C32.7793 10.52 32.7751 10.5036 32.7772 10.4936C32.7786 10.4864 32.7871 10.475 32.8027 10.4729C33.8412 10.4536 34.9577 10.5962 35.3702 10.6975ZM24.096 9.37438C24.2264 9.37082 24.354 9.35941 24.4788 9.33731C24.5688 9.32162 24.6142 9.21967 24.5631 9.14409C24.0669 8.40972 23.7841 7.52634 23.7841 6.57808C23.7841 5.58846 24.0932 4.66586 24.6298 3.90939C24.6468 3.88586 24.6588 3.8495 24.6425 3.82241C24.6283 3.80102 24.6014 3.7889 24.5773 3.78319C24.3958 3.74612 24.2101 3.72544 24.0159 3.72544C22.2296 3.72544 20.8267 5.41592 21.3052 7.2989C21.6277 8.56658 22.7952 9.40861 24.096 9.37438ZM24.2225 10.4931C24.2247 10.5038 24.2204 10.5195 24.2006 10.5309C23.72 10.7698 21.8649 11.8086 22.0981 13.9989C22.108 14.0944 22.0329 14.1757 21.9386 14.1621C21.4821 14.0965 20.3075 13.8427 19.9431 13.052C19.7411 12.6335 19.7411 12.1487 19.9431 11.7302C20.1813 11.2204 20.7555 10.8696 21.6295 10.6971C22.0428 10.5965 23.1585 10.4539 24.1977 10.4732C24.2133 10.4753 24.2211 10.4867 24.2225 10.4931Z" fill="#0066E0"/>
</g>
<g opacity="0.4">
<path fill-rule="evenodd" clip-rule="evenodd" d="M11.4611 3.51666L17.2156 13.5036C17.3422 13.8017 17.3976 14.0441 17.4135 14.2959C17.4451 14.8843 17.2393 15.4562 16.8357 15.8962C16.432 16.3348 15.8858 16.5936 15.2922 16.625H3.70411C3.45874 16.6101 3.21336 16.5544 2.98382 16.4681C1.83609 16.0053 1.28202 14.7031 1.74902 13.5742L7.54305 3.5096C7.74093 3.1558 8.04171 2.85065 8.41374 2.65453C9.49022 2.05756 10.8596 2.44979 11.4611 3.51666ZM10.1868 10.0983C10.1868 10.4748 9.87809 10.7894 9.49815 10.7894C9.11822 10.7894 8.8016 10.4748 8.8016 10.0983V7.87905C8.8016 7.50172 9.11822 7.19657 9.49815 7.19657C9.87809 7.19657 10.1868 7.50172 10.1868 7.87905V10.0983ZM9.49815 13.4723C9.11822 13.4723 8.8016 13.1577 8.8016 12.7819C8.8016 12.4046 9.11822 12.0908 9.49815 12.0908C9.87809 12.0908 10.1868 12.3976 10.1868 12.7733C10.1868 13.1577 9.87809 13.4723 9.49815 13.4723Z" fill="#0066E0"/>
</g>
</svg>
