<svg width="38" height="38" viewBox="0 0 38 38" fill="none" xmlns="http://www.w3.org/2000/svg">
<g opacity="0.6">
<path fill-rule="evenodd" clip-rule="evenodd" d="M32.6911 5.77206C32.6911 8.09721 30.8268 9.96161 28.5 9.96161C26.174 9.96161 24.3089 8.09721 24.3089 5.77206C24.3089 3.44692 26.174 1.58331 28.5 1.58331C30.8268 1.58331 32.6911 3.44692 32.6911 5.77206ZM28.5 17.4166C25.0661 17.4166 22.1667 16.8585 22.1667 14.7052C22.1667 12.551 25.0843 12.0127 28.5 12.0127C31.9348 12.0127 34.8334 12.5708 34.8334 14.7242C34.8334 16.8783 31.9158 17.4166 28.5 17.4166Z" fill="#3077BA"/>
</g>
<path fill-rule="evenodd" clip-rule="evenodd" d="M20.5834 28.4999C20.5834 24.1299 24.1222 20.5833 28.5001 20.5833C32.8701 20.5833 36.4168 24.1299 36.4168 28.4999C36.4168 32.8699 32.8701 36.4166 28.5001 36.4166C24.1222 36.4166 20.5834 32.8699 20.5834 28.4999ZM24.9534 29.4499C24.4309 29.4499 24.0034 29.0224 24.0034 28.4999C24.0034 27.9774 24.4309 27.5507 24.9534 27.5507C25.4759 27.5507 25.8955 27.9774 25.8955 28.4999C25.8955 29.0224 25.4759 29.4499 24.9534 29.4499ZM27.5501 28.4999C27.5501 29.0224 27.9776 29.4499 28.5001 29.4499C29.0226 29.4499 29.4422 29.0224 29.4422 28.4999C29.4422 27.9774 29.0226 27.5507 28.5001 27.5507C27.9776 27.5507 27.5501 27.9774 27.5501 28.4999ZM31.0968 28.4999C31.0968 29.0224 31.5164 29.4499 32.0468 29.4499C32.5693 29.4499 32.9889 29.0224 32.9889 28.4999C32.9889 27.9774 32.5693 27.5507 32.0468 27.5507C31.5164 27.5507 31.0968 27.9774 31.0968 28.4999Z" fill="#3077BA"/>
<g opacity="0.8">
<path fill-rule="evenodd" clip-rule="evenodd" d="M9.63833 31.0471H9.36148C7.4588 31.0471 5.91656 29.5234 5.91656 27.6452V23.9852C5.91656 22.1063 7.4588 20.5833 9.36148 20.5833H9.63833C11.541 20.5833 13.084 22.1063 13.084 23.9852V27.6452C13.084 29.5234 11.541 31.0471 9.63833 31.0471ZM14.6953 27.5364C14.6953 27.1176 15.0389 26.7791 15.4622 26.7791C15.8856 26.7791 16.2291 27.1176 16.2291 27.5364C16.2291 30.9436 13.6171 33.757 10.2673 34.1349V35.6593C10.2673 36.0774 9.92369 36.4166 9.50036 36.4166C9.07627 36.4166 8.73346 36.0774 8.73346 35.6593V34.1349C5.38288 33.757 2.77081 30.9436 2.77081 27.5364C2.77081 27.1176 3.11438 26.7791 3.53771 26.7791C3.96104 26.7791 4.30461 27.1176 4.30461 27.5364C4.30461 30.365 6.63522 32.6664 9.50036 32.6664C12.3647 32.6664 14.6953 30.365 14.6953 27.5364Z" fill="#3077BA"/>
</g>
<g opacity="0.4">
<path fill-rule="evenodd" clip-rule="evenodd" d="M12.9919 2.1918L12.9927 2.78525C15.1735 2.95617 16.614 4.44217 16.6164 6.72103L16.625 13.3914C16.6281 15.876 15.0672 17.4048 12.5652 17.4087L6.45357 17.4166C3.96719 17.4198 2.38673 15.8547 2.3836 13.363L2.37501 6.77088C2.37188 4.47699 3.76163 2.99494 5.94239 2.79475L5.9416 2.2013C5.94082 1.85314 6.19876 1.59123 6.54268 1.59123C6.8866 1.59044 7.14454 1.85156 7.14532 2.19971L7.1461 2.7536L11.789 2.74727L11.7882 2.19338C11.7874 1.84523 12.0454 1.58411 12.3893 1.58331C12.7254 1.58252 12.9912 1.84364 12.9919 2.1918ZM3.5795 7.01537L15.4134 6.99955V6.7226C15.3798 5.02137 14.5263 4.12882 12.9943 3.99588L12.9951 4.60516C12.9951 4.94541 12.7301 5.21523 12.394 5.21523C12.0501 5.21602 11.7914 4.94699 11.7914 4.60675L11.7906 3.96582L7.14766 3.97215L7.14844 4.61228C7.14844 4.95332 6.89129 5.22235 6.54737 5.22235C6.20345 5.22315 5.94473 4.9549 5.94473 4.61387L5.94394 4.00459C4.41976 4.1573 3.57637 5.05302 3.57872 6.76929L3.5795 7.01537ZM12.0649 10.6117V10.6204C12.0727 10.9844 12.3698 11.2605 12.7301 11.2526C13.0818 11.2439 13.3624 10.9424 13.3546 10.5785C13.3382 10.2303 13.056 9.94623 12.7051 9.94702C12.3455 9.95493 12.0641 10.2477 12.0649 10.6117ZM12.7105 14.1645C12.351 14.1566 12.061 13.8567 12.0602 13.4927C12.0524 13.1287 12.3408 12.8273 12.7004 12.8186H12.7082C13.0756 12.8186 13.3734 13.1185 13.3734 13.4904C13.3742 13.8623 13.0771 14.1637 12.7105 14.1645ZM8.8446 10.6243C8.86024 10.9883 9.15804 11.2724 9.51759 11.2566C9.86933 11.24 10.1499 10.9393 10.1343 10.5753C10.1257 10.2192 9.8365 9.94227 9.48476 9.94307C9.12521 9.95889 8.84382 10.2604 8.8446 10.6243ZM9.5207 14.1289C9.16115 14.1447 8.86413 13.8607 8.84772 13.4967C8.84772 13.1327 9.12832 12.832 9.48787 12.8154C9.83961 12.8146 10.1296 13.0915 10.1374 13.4468C10.1538 13.8116 9.87244 14.1123 9.5207 14.1289ZM5.62424 10.652C5.63987 11.016 5.93768 11.3009 6.29723 11.2843C6.64896 11.2684 6.92957 10.967 6.91316 10.603C6.90534 10.2469 6.61614 9.96997 6.26362 9.97076C5.90407 9.98659 5.62346 10.2881 5.62424 10.652ZM6.30038 14.1329C5.94083 14.1495 5.6438 13.8646 5.62739 13.5006C5.62661 13.1367 5.908 12.8352 6.26755 12.8194C6.61928 12.8186 6.90927 13.0955 6.91709 13.4516C6.9335 13.8156 6.65289 14.117 6.30038 14.1329Z" fill="#3077BA"/>
</g>
</svg>
