<svg width="182" height="24" viewBox="0 0 182 24" fill="none" xmlns="http://www.w3.org/2000/svg">
<path d="M9.24477 4.5V18.5H12.4848V14.62H15.2048C18.1048 14.62 20.2248 12.5 20.2248 9.56C20.2248 6.62 18.1248 4.5 15.2048 4.5H9.24477ZM12.4848 11.98V7.14H14.7048C16.0048 7.14 16.9448 8.16 16.9448 9.56C16.9448 10.96 16.0048 11.98 14.7048 11.98H12.4848ZM24.7048 18.5V14.78C24.7048 12.64 25.5848 11.56 27.2448 11.56C27.6248 11.56 27.8048 11.58 28.1648 11.62V8.78C27.9248 8.72 27.7248 8.7 27.3648 8.7C26.1848 8.7 25.0448 9.44 24.7048 10.88V8.86H21.6448V18.5H24.7048ZM34.3502 18.76C37.6502 18.76 39.6902 16.62 39.6902 13.68C39.6902 10.74 37.6502 8.6 34.3502 8.6C31.0302 8.6 28.9902 10.74 28.9902 13.68C28.9902 16.62 31.0302 18.76 34.3502 18.76ZM34.3502 16.18C32.8902 16.18 32.0502 15.14 32.0502 13.68C32.0502 12.22 32.8902 11.18 34.3502 11.18C35.7902 11.18 36.6502 12.22 36.6502 13.68C36.6502 15.14 35.7902 16.18 34.3502 16.18ZM48.5057 10.24C47.9857 9.26 46.8857 8.6 45.4857 8.6C42.6857 8.6 40.9057 10.8 40.9057 13.68C40.9057 16.58 42.5657 18.76 45.4457 18.76C46.7857 18.76 47.9857 18.1 48.5057 17.14V18.5H51.5457V4.5H48.5057V10.24ZM46.3257 16.22C44.9057 16.22 44.0257 15.14 44.0257 13.68C44.0257 12.22 44.9057 11.16 46.3257 11.16C47.8457 11.16 48.6257 12.3 48.6257 13.68C48.6257 15.08 47.8457 16.22 46.3257 16.22ZM57.5462 18.76C59.0062 18.76 60.0062 18.14 60.5462 17.12V18.5H63.5862V8.86H60.5462V14.04C60.5462 15.34 59.9862 16.18 58.6862 16.18C57.5262 16.18 57.0862 15.46 57.0862 14.14V8.86H53.9862V14.82C53.9862 17.32 55.2262 18.76 57.5462 18.76ZM70.5174 18.76C73.3974 18.76 75.2774 17.26 75.5174 14.92H72.4574C72.2374 15.76 71.6574 16.16 70.5374 16.16C69.2174 16.16 68.4174 15.28 68.4174 13.68C68.4174 12.08 69.2174 11.2 70.5374 11.2C71.6574 11.2 72.2374 11.62 72.4574 12.52H75.5174C75.2774 10.12 73.3974 8.6 70.5174 8.6C67.3374 8.6 65.3574 10.64 65.3574 13.68C65.3574 16.72 67.3374 18.76 70.5174 18.76ZM82.2907 16.12C81.5307 16.12 80.9507 15.9 80.9507 14.48V11.28H83.1307V8.86H80.9507V6H77.8907V8.86H76.3707V11.28H77.8907V15.12C77.8907 18.34 79.8707 18.66 81.3107 18.66C82.1907 18.66 82.9107 18.58 83.3507 18.5V16.06C83.0707 16.1 82.6307 16.12 82.2907 16.12ZM95.3451 18.5C99.8651 18.5 102.485 15.28 102.485 11.5C102.485 7.72 99.8451 4.5 95.3451 4.5H90.0651V18.5H95.3451ZM93.3051 7.22H95.0451C97.8051 7.22 99.1451 9.28 99.1451 11.5C99.1451 13.72 97.8051 15.78 95.0451 15.78H93.3051V7.22ZM113.996 13.18C113.996 10.46 111.956 8.6 108.956 8.6C105.816 8.6 103.756 10.52 103.756 13.68C103.756 16.9 105.776 18.76 109.056 18.76C111.616 18.76 113.556 17.5 113.856 15.6H110.856C110.596 16.2 109.996 16.46 109.056 16.46C107.696 16.46 106.856 15.78 106.796 14.52H113.916C113.976 13.98 113.996 13.68 113.996 13.18ZM106.796 12.62C106.816 11.44 107.616 10.66 108.936 10.66C110.236 10.66 110.956 11.34 110.976 12.62H106.796ZM119.645 18.76C122.205 18.76 123.865 17.58 123.865 15.58C123.865 14.12 122.945 13.2 121.425 12.8L119.385 12.24C118.605 12.04 118.325 11.76 118.325 11.32C118.325 10.86 118.765 10.54 119.425 10.54C120.245 10.54 120.745 10.9 120.745 11.58H123.765C123.765 9.66 122.185 8.6 119.465 8.6C116.985 8.6 115.345 9.8 115.345 11.62C115.345 13.08 116.225 14.06 117.765 14.44L119.785 14.94C120.605 15.14 120.825 15.4 120.825 15.84C120.825 16.4 120.365 16.72 119.705 16.72C118.765 16.72 118.125 16.26 118.125 15.6H115.085C115.085 17.48 116.905 18.76 119.645 18.76ZM127.286 8.02C128.386 8.02 129.186 7.18 129.186 6.16C129.186 5.12 128.386 4.28 127.286 4.28C126.186 4.28 125.406 5.12 125.406 6.16C125.406 7.18 126.186 8.02 127.286 8.02ZM128.806 18.5V8.86H125.766V18.5H128.806ZM138.252 10.24C137.772 9.24 136.592 8.6 135.272 8.6C132.492 8.6 130.652 10.74 130.652 13.58C130.652 16.42 132.372 18.5 135.232 18.5C136.492 18.5 137.772 17.9 138.252 16.94V18.22C138.252 19.94 137.392 20.56 135.972 20.56C134.732 20.56 134.072 20.1 133.932 19.34H130.812C130.852 20.38 131.552 21.42 132.532 22.02C133.472 22.58 134.632 22.8 136.012 22.8C137.392 22.8 138.572 22.56 139.452 21.94C140.632 21.12 141.292 19.74 141.312 17.88V8.86H138.252V10.24ZM136.072 16.14C134.692 16.14 133.792 15.08 133.792 13.62C133.792 12.16 134.692 11.1 136.072 11.1C137.532 11.1 138.392 12.22 138.392 13.62C138.392 15.02 137.532 16.14 136.072 16.14ZM146.892 18.5V13.46C146.892 11.98 147.532 11.18 148.752 11.18C149.992 11.18 150.452 11.92 150.452 13.54V18.5H153.532V12.54C153.532 9.92 152.352 8.6 150.012 8.6C148.552 8.6 147.452 9.18 146.892 10.26V8.86H143.832V18.5H146.892ZM165.461 13.18C165.461 10.46 163.421 8.6 160.421 8.6C157.281 8.6 155.221 10.52 155.221 13.68C155.221 16.9 157.241 18.76 160.521 18.76C163.081 18.76 165.021 17.5 165.321 15.6H162.321C162.061 16.2 161.461 16.46 160.521 16.46C159.161 16.46 158.321 15.78 158.261 14.52H165.381C165.441 13.98 165.461 13.68 165.461 13.18ZM158.261 12.62C158.281 11.44 159.081 10.66 160.401 10.66C161.701 10.66 162.421 11.34 162.441 12.62H158.261ZM170.271 18.5V14.78C170.271 12.64 171.151 11.56 172.811 11.56C173.191 11.56 173.371 11.58 173.731 11.62V8.78C173.491 8.72 173.291 8.7 172.931 8.7C171.751 8.7 170.611 9.44 170.271 10.88V8.86H167.211V18.5H170.271Z" fill="url(#paint0_linear)"/>
<defs>
<linearGradient id="paint0_linear" x1="0" y1="4.5" x2="46.4096" y2="91.2708" gradientUnits="userSpaceOnUse">
<stop stop-color="#DAAF20"/>
<stop offset="1" stop-color="#E46E2B"/>
</linearGradient>
</defs>
</svg>
