<svg width="1440" height="221" viewBox="0 0 1440 221" fill="none" xmlns="http://www.w3.org/2000/svg">
<path d="M0 93V93C46.518 78.7123 89.0428 53.1677 135.919 40.1034C164.066 32.2589 196.285 32.6502 240 50.3001C320 82.0001 400 136 480 125C560 114 640 40.0001 720 13.0001C800 -13.9999 880 8.00007 960 39.7001C1040 72.0001 1120 114 1200 125C1280 136 1360 114 1400 103.7L1440 93.0001V221H1400C1360 221 1280 221 1200 221C1120 221 1040 221 960 221C880 221 800 221 720 221C640 221 560 221 480 221C400 221 320 221 240 221C160 221 80 221 40 221H0V93Z" fill="white"/>
</svg>
