<svg width="1440" height="320" viewBox="0 0 1440 320" fill="none" xmlns="http://www.w3.org/2000/svg">
<path d="M0 192V192C46.518 177.712 89.0428 152.168 135.919 139.103C164.066 131.259 196.285 131.65 240 149.3C320 181 400 235 480 224C560 213 640 139 720 112C800 85.0001 880 107 960 138.7C1040 171 1120 213 1200 224C1280 235 1360 213 1400 202.7L1440 192V320H1400C1360 320 1280 320 1200 320C1120 320 1040 320 960 320C880 320 800 320 720 320C640 320 560 320 480 320C400 320 320 320 240 320C160 320 80 320 40 320H0V192Z" fill="url(#paint0_linear)"/>
<defs>
<linearGradient id="paint0_linear" x1="0" y1="99.8428" x2="489.948" y2="901.003" gradientUnits="userSpaceOnUse">
<stop stop-color="#DEDEDE"/>
<stop offset="1" stop-color="white"/>
</linearGradient>
</defs>
</svg>
