<svg width="395" height="68" viewBox="0 0 395 68" fill="none" xmlns="http://www.w3.org/2000/svg">
<rect opacity="0.06" x="8" width="379" height="68" rx="16" fill="#C32361"/>
<path d="M92.4347 26.4545V41H94.9631V30.9858H95.098L99.1179 40.9574H101.007L105.027 31.0071H105.162V41H107.69V26.4545H104.466L100.148 36.9943H99.9773L95.6591 26.4545H92.4347ZM112.044 45.0909C114.047 45.0909 115.205 44.0611 115.822 42.321L120.205 30.1051L117.456 30.0909L114.935 38.3295H114.821L112.307 30.0909H109.58L113.536 41.2273L113.315 41.8168C112.839 43.0597 112.087 43.1449 110.964 42.8182L110.368 44.821C110.716 44.9631 111.341 45.0909 112.044 45.0909ZM131.993 41C136.424 41 139.052 38.2585 139.052 33.7131C139.052 29.1818 136.424 26.4545 132.092 26.4545H127.064V41H131.993ZM129.699 38.7202V28.7344H131.943C134.897 28.7344 136.439 30.3821 136.439 33.7131C136.439 37.0582 134.897 38.7202 131.865 38.7202H129.699ZM141.442 41H144.013V34.5866C144.013 33.2017 145.057 32.2216 146.471 32.2216C146.904 32.2216 147.444 32.2997 147.664 32.3707V30.0057C147.429 29.9631 147.025 29.9347 146.74 29.9347C145.49 29.9347 144.446 30.6449 144.049 31.9091H143.935V30.0909H141.442V41ZM149.372 41H151.943V30.0909H149.372V41ZM150.664 28.5426C151.481 28.5426 152.149 27.9176 152.149 27.1506C152.149 26.3764 151.481 25.7514 150.664 25.7514C149.841 25.7514 149.173 26.3764 149.173 27.1506C149.173 27.9176 149.841 28.5426 150.664 28.5426ZM154.7 41H157.229V39.2812H157.378C157.783 40.0767 158.628 41.1918 160.503 41.1918C163.074 41.1918 164.999 39.1534 164.999 35.5597C164.999 31.9233 163.017 29.9489 160.496 29.9489C158.571 29.9489 157.768 31.1065 157.378 31.8949H157.271V26.4545H154.7V41ZM157.222 35.5455C157.222 33.429 158.131 32.0582 159.786 32.0582C161.497 32.0582 162.378 33.5142 162.378 35.5455C162.378 37.5909 161.483 39.0824 159.786 39.0824C158.145 39.0824 157.222 37.6619 157.222 35.5455ZM167.298 41H169.826V39.2812H169.975C170.38 40.0767 171.225 41.1918 173.1 41.1918C175.672 41.1918 177.596 39.1534 177.596 35.5597C177.596 31.9233 175.615 29.9489 173.093 29.9489C171.169 29.9489 170.366 31.1065 169.975 31.8949H169.869V26.4545H167.298V41ZM169.819 35.5455C169.819 33.429 170.728 32.0582 172.383 32.0582C174.095 32.0582 174.975 33.5142 174.975 35.5455C174.975 37.5909 174.081 39.0824 172.383 39.0824C170.743 39.0824 169.819 37.6619 169.819 35.5455ZM179.896 41H182.424V39.2812H182.573C182.978 40.0767 183.823 41.1918 185.698 41.1918C188.269 41.1918 190.194 39.1534 190.194 35.5597C190.194 31.9233 188.212 29.9489 185.691 29.9489C183.766 29.9489 182.964 31.1065 182.573 31.8949H182.467V26.4545H179.896V41ZM182.417 35.5455C182.417 33.429 183.326 32.0582 184.981 32.0582C186.692 32.0582 187.573 33.5142 187.573 35.5455C187.573 37.5909 186.678 39.0824 184.981 39.0824C183.34 39.0824 182.417 37.6619 182.417 35.5455ZM194.951 26.4545H192.38V41H194.951V26.4545ZM202.424 41.2131C204.967 41.2131 206.714 39.9702 207.168 38.0739L204.768 37.804C204.42 38.7273 203.567 39.2102 202.46 39.2102C200.798 39.2102 199.697 38.1165 199.675 36.2486H207.275V35.4602C207.275 31.6321 204.974 29.9489 202.289 29.9489C199.164 29.9489 197.126 32.2429 197.126 35.6094C197.126 39.0327 199.136 41.2131 202.424 41.2131ZM199.683 34.5156C199.761 33.1236 200.79 31.9517 202.325 31.9517C203.802 31.9517 204.796 33.0312 204.81 34.5156H199.683Z" fill="#C32361"/>
<path d="M43 47.5625C50.4904 47.5625 56.5625 41.4904 56.5625 34C56.5625 26.5096 50.4904 20.4375 43 20.4375C35.5096 20.4375 29.4375 26.5096 29.4375 34C29.4375 41.4904 35.5096 47.5625 43 47.5625Z" fill="#EA4C89"/>
<path fill-rule="evenodd" clip-rule="evenodd" d="M43 20C35.2712 20 29 26.2712 29 34C29 41.7289 35.2712 48 43 48C50.7136 48 57 41.7289 57 34C57 26.2712 50.7136 20 43 20ZM52.2473 26.4534C53.9176 28.4881 54.9198 31.0846 54.9501 33.8937C54.5553 33.8178 50.6073 33.013 46.6291 33.5141C46.538 33.3167 46.462 33.1041 46.3709 32.8916C46.128 32.3146 45.8547 31.7224 45.5813 31.1605C49.9848 29.3688 51.9891 26.7874 52.2473 26.4534ZM43 22.0651C46.0369 22.0651 48.8156 23.2039 50.9263 25.0716C50.7136 25.3753 48.9067 27.7896 44.6551 29.3839C42.6963 25.7852 40.525 22.8395 40.1909 22.3839C41.0867 22.1714 42.0282 22.0651 43 22.0651ZM37.9133 23.1887C38.2321 23.6139 40.3579 26.5748 42.3471 30.0976C36.7592 31.5857 31.8243 31.5553 31.2928 31.5553C32.0672 27.8503 34.5727 24.7679 37.9133 23.1887ZM31.0347 34.0152C31.0347 33.8937 31.0347 33.7722 31.0347 33.6508C31.551 33.6659 37.3514 33.7419 43.3189 31.9501C43.6682 32.6182 43.987 33.3015 44.2907 33.9848C44.1388 34.0304 43.9718 34.0759 43.82 34.1214C37.6551 36.1106 34.3753 41.5466 34.102 42.0021C32.2039 39.8916 31.0347 37.0825 31.0347 34.0152ZM43 45.9653C40.2364 45.9653 37.6855 45.0239 35.6659 43.4447C35.8785 43.0044 38.308 38.3276 45.0499 35.974C45.0802 35.9588 45.0955 35.9588 45.1258 35.9436C46.8112 40.3015 47.4946 43.9609 47.6768 45.0086C46.2343 45.6312 44.6551 45.9653 43 45.9653ZM49.6659 43.9154C49.5445 43.1865 48.9067 39.6942 47.3427 35.3969C51.0933 34.8047 54.3731 35.7766 54.7831 35.9133C54.2668 39.2386 52.3536 42.1084 49.6659 43.9154Z" fill="#C32361"/>
<rect opacity="0.2" x="73" y="24" width="2" height="20" rx="1" fill="#C32361"/>
<circle opacity="0.2" cx="354" cy="34" r="12" fill="#C32361"/>
<path d="M349.333 34H358.667" stroke="#C32361" stroke-width="1.4" stroke-linecap="round" stroke-linejoin="round"/>
<path d="M354 29.3333L358.667 34L354 38.6666" stroke="#C32361" stroke-width="1.4" stroke-linecap="round" stroke-linejoin="round"/>
</svg>
