<svg width="395" height="68" viewBox="0 0 395 68" fill="none" xmlns="http://www.w3.org/2000/svg">
<rect x="8" width="379" height="68" rx="16" fill="#0A66C2" fill-opacity="0.06"/>
<path d="M92.4347 26.4545V41H94.9631V30.9858H95.098L99.1179 40.9574H101.007L105.027 31.0071H105.162V41H107.69V26.4545H104.466L100.148 36.9943H99.9773L95.6591 26.4545H92.4347ZM112.044 45.0909C114.047 45.0909 115.205 44.0611 115.822 42.321L120.205 30.1051L117.456 30.0909L114.935 38.3295H114.821L112.307 30.0909H109.58L113.536 41.2273L113.315 41.8168C112.839 43.0597 112.087 43.1449 110.964 42.8182L110.368 44.821C110.716 44.9631 111.341 45.0909 112.044 45.0909ZM127.064 41H136.105V38.7912H129.699V26.4545H127.064V41ZM138.278 41H140.849V30.0909H138.278V41ZM139.571 28.5426C140.387 28.5426 141.055 27.9176 141.055 27.1506C141.055 26.3764 140.387 25.7514 139.571 25.7514C138.747 25.7514 138.079 26.3764 138.079 27.1506C138.079 27.9176 138.747 28.5426 139.571 28.5426ZM146.064 34.608C146.064 33.0312 147.016 32.1222 148.372 32.1222C149.7 32.1222 150.496 32.9957 150.496 34.4517V41H153.067V34.054C153.074 31.4403 151.582 29.9489 149.331 29.9489C147.697 29.9489 146.575 30.7301 146.078 31.9446H145.95V30.0909H143.493V41H146.064V34.608ZM155.68 41H158.251V37.3352L159.189 36.3338L162.527 41H165.602L161.128 34.7997L165.354 30.0909H162.349L158.429 34.473H158.251V26.4545H155.68V41ZM171.447 41.2131C173.99 41.2131 175.737 39.9702 176.192 38.0739L173.791 37.804C173.443 38.7273 172.591 39.2102 171.483 39.2102C169.821 39.2102 168.72 38.1165 168.699 36.2486H176.298V35.4602C176.298 31.6321 173.997 29.9489 171.312 29.9489C168.188 29.9489 166.149 32.2429 166.149 35.6094C166.149 39.0327 168.159 41.2131 171.447 41.2131ZM168.706 34.5156C168.784 33.1236 169.814 31.9517 171.348 31.9517C172.825 31.9517 173.82 33.0312 173.834 34.5156H168.706ZM182.522 41.1918C184.397 41.1918 185.242 40.0767 185.647 39.2812H185.803V41H188.331V26.4545H185.753V31.8949H185.647C185.256 31.1065 184.453 29.9489 182.529 29.9489C180.007 29.9489 178.026 31.9233 178.026 35.5597C178.026 39.1534 179.951 41.1918 182.522 41.1918ZM183.239 39.0824C181.542 39.0824 180.647 37.5909 180.647 35.5455C180.647 33.5142 181.527 32.0582 183.239 32.0582C184.894 32.0582 185.803 33.429 185.803 35.5455C185.803 37.6619 184.88 39.0824 183.239 39.0824ZM193.82 26.4545H191.185V41H193.82V26.4545ZM199.13 34.608C199.13 33.0312 200.082 32.1222 201.439 32.1222C202.767 32.1222 203.562 32.9957 203.562 34.4517V41H206.133V34.054C206.14 31.4403 204.649 29.9489 202.397 29.9489C200.764 29.9489 199.642 30.7301 199.145 31.9446H199.017V30.0909H196.559V41H199.13V34.608Z" fill="#0A66C2"/>
<g clip-path="url(#clip0)">
<rect x="29" y="20" width="28" height="28" rx="4" fill="white"/>
<path d="M54.9331 20H31.0669C30.5188 20 29.993 20.2178 29.6054 20.6054C29.2178 20.993 29 21.5188 29 22.0669V45.9331C29 46.4812 29.2178 47.007 29.6054 47.3946C29.993 47.7822 30.5188 48 31.0669 48H54.9331C55.4812 48 56.007 47.7822 56.3946 47.3946C56.7822 47.007 57 46.4812 57 45.9331V22.0669C57 21.5188 56.7822 20.993 56.3946 20.6054C56.007 20.2178 55.4812 20 54.9331 20ZM37.3456 43.8525H33.1358V30.4806H37.3456V43.8525ZM35.2378 28.6275C34.7603 28.6248 34.2942 28.4807 33.8985 28.2134C33.5028 27.9461 33.1951 27.5676 33.0144 27.1256C32.8336 26.6837 32.7878 26.198 32.8827 25.73C32.9777 25.262 33.2091 24.8327 33.5478 24.4961C33.8866 24.1595 34.3175 23.9308 34.786 23.8389C35.2546 23.7469 35.74 23.7959 36.1808 23.9795C36.6216 24.1631 36.9981 24.4732 37.2629 24.8706C37.5276 25.268 37.6687 25.735 37.6683 26.2125C37.6728 26.5322 37.6129 26.8495 37.4922 27.1456C37.3714 27.4417 37.1923 27.7104 36.9655 27.9357C36.7387 28.1611 36.4688 28.3385 36.172 28.4573C35.8752 28.5762 35.5574 28.6341 35.2378 28.6275ZM52.8622 43.8642H48.6544V36.5589C48.6544 34.4044 47.7386 33.7394 46.5564 33.7394C45.3081 33.7394 44.0831 34.6806 44.0831 36.6133V43.8642H39.8733V30.4903H43.9217V32.3433H43.9761C44.3825 31.5208 45.8058 30.115 47.9778 30.115C50.3267 30.115 52.8642 31.5092 52.8642 35.5925L52.8622 43.8642Z" fill="#0A66C2"/>
</g>
<rect opacity="0.2" x="73" y="24" width="2" height="20" rx="1" fill="#0A66C2"/>
<circle opacity="0.2" cx="354" cy="34" r="12" fill="#0A66C2"/>
<path d="M349.333 34H358.667" stroke="#0A66C2" stroke-width="1.4" stroke-linecap="round" stroke-linejoin="round"/>
<path d="M354 29.3333L358.667 34L354 38.6666" stroke="#0A66C2" stroke-width="1.4" stroke-linecap="round" stroke-linejoin="round"/>
<defs>
<clipPath id="clip0">
<rect width="28" height="28" fill="white" transform="translate(29 20)"/>
</clipPath>
</defs>
</svg>
