<svg width="395" height="68" viewBox="0 0 395 68" fill="none" xmlns="http://www.w3.org/2000/svg">
<rect opacity="0.06" x="8" width="379" height="68" rx="16" fill="#1D34A6"/>
<path d="M93.4347 26.4545V41H95.9631V30.9858H96.098L100.118 40.9574H102.007L106.027 31.0071H106.162V41H108.69V26.4545H105.466L101.148 36.9943H100.977L96.6591 26.4545H93.4347ZM113.044 45.0909C115.047 45.0909 116.205 44.0611 116.822 42.321L121.205 30.1051L118.456 30.0909L115.935 38.3295H115.821L113.307 30.0909H110.58L114.536 41.2273L114.315 41.8168C113.839 43.0597 113.087 43.1449 111.964 42.8182L111.368 44.821C111.716 44.9631 112.341 45.0909 113.044 45.0909ZM128.064 41H137.581V38.7912H130.699V34.821H137.034V32.6122H130.699V28.6634H137.524V26.4545H128.064V41ZM140.098 41H142.669V34.3665C142.669 33.0241 143.564 32.1151 144.672 32.1151C145.759 32.1151 146.505 32.8466 146.505 33.9688V41H149.026V34.196C149.026 32.9673 149.757 32.1151 151 32.1151C152.037 32.1151 152.861 32.7259 152.861 34.0753V41H155.439V33.6776C155.439 31.2415 154.033 29.9489 152.03 29.9489C150.446 29.9489 149.239 30.7301 148.756 31.9446H148.642C148.223 30.7088 147.165 29.9489 145.695 29.9489C144.232 29.9489 143.138 30.7017 142.684 31.9446H142.556V30.0909H140.098V41ZM161.187 41.2202C162.898 41.2202 163.921 40.4176 164.39 39.5014H164.475V41H166.947V33.6989C166.947 30.8153 164.596 29.9489 162.515 29.9489C160.221 29.9489 158.46 30.9716 157.891 32.9602L160.292 33.3011C160.548 32.5554 161.272 31.9162 162.529 31.9162C163.722 31.9162 164.376 32.527 164.376 33.5994V33.642C164.376 34.3807 163.602 34.4162 161.677 34.6222C159.56 34.8494 157.536 35.4815 157.536 37.9389C157.536 40.0838 159.106 41.2202 161.187 41.2202ZM161.854 39.331C160.782 39.331 160.015 38.8409 160.015 37.8963C160.015 36.9091 160.874 36.4972 162.025 36.3338C162.7 36.2415 164.049 36.071 164.383 35.8011V37.0866C164.383 38.3011 163.403 39.331 161.854 39.331ZM169.532 41H172.103V30.0909H169.532V41ZM170.825 28.5426C171.641 28.5426 172.309 27.9176 172.309 27.1506C172.309 26.3764 171.641 25.7514 170.825 25.7514C170.001 25.7514 169.333 26.3764 169.333 27.1506C169.333 27.9176 170.001 28.5426 170.825 28.5426ZM177.318 26.4545H174.747V41H177.318V26.4545Z" fill="#1D34A6"/>
<rect opacity="0.2" x="73" y="24" width="2" height="20" rx="1" fill="#1D34A6"/>
<circle opacity="0.2" cx="354" cy="34" r="12" fill="#1D34A6"/>
<path d="M349.333 34H358.667" stroke="#1D34A6" stroke-width="1.4" stroke-linecap="round" stroke-linejoin="round"/>
<path d="M354 29.3333L358.667 34L354 38.6667" stroke="#1D34A6" stroke-width="1.4" stroke-linecap="round" stroke-linejoin="round"/>
<path d="M53.3592 23.9747C52.0939 22.7067 50.3739 22 48.5859 22H35.4139C31.6792 22 28.6672 25.0133 28.6672 28.7333V39.2667C28.6672 42.9867 31.6925 46 35.4139 46H48.5859C52.3072 46 55.3339 42.9867 55.3339 39.2667V28.7333C55.3339 26.9467 54.6259 25.24 53.3592 23.9747" fill="white"/>
<path fill-rule="evenodd" clip-rule="evenodd" d="M48.5859 22C50.3739 22 52.0939 22.7067 53.3592 23.9747C54.6259 25.24 55.3339 26.9467 55.3339 28.7333V39.2667C55.3339 42.9867 52.3072 46 48.5859 46H35.4139C31.6925 46 28.6672 42.9867 28.6672 39.2667V28.7333C28.6672 25.0133 31.6792 22 35.4139 22H48.5859ZM50.7072 30.72L50.8139 30.6133C51.1325 30.2267 51.1325 29.6667 50.7992 29.28C50.6139 29.0813 50.3592 28.96 50.0939 28.9333C49.8139 28.9187 49.5472 29.0133 49.3459 29.2L43.3339 34C42.5605 34.6413 41.4525 34.6413 40.6672 34L34.6672 29.2C34.2525 28.8933 33.6792 28.9333 33.3339 29.2933C32.9739 29.6533 32.9339 30.2267 33.2392 30.6267L33.4139 30.8L39.4805 35.5333C40.2272 36.12 41.1325 36.44 42.0805 36.44C43.0259 36.44 43.9472 36.12 44.6925 35.5333L50.7072 30.72Z" fill="#1D34A6"/>
</svg>
