<svg width="395" height="68" viewBox="0 0 395 68" fill="none" xmlns="http://www.w3.org/2000/svg">
<rect opacity="0.06" x="8" width="379" height="68" rx="16" fill="#05767E"/>
<path d="M93.4347 26.4545V41H95.9631V30.9858H96.098L100.118 40.9574H102.007L106.027 31.0071H106.162V41H108.69V26.4545H105.466L101.148 36.9943H100.977L96.6591 26.4545H93.4347ZM113.044 45.0909C115.047 45.0909 116.205 44.0611 116.822 42.321L121.205 30.1051L118.456 30.0909L115.935 38.3295H115.821L113.307 30.0909H110.58L114.536 41.2273L114.315 41.8168C113.839 43.0597 113.087 43.1449 111.964 42.8182L111.368 44.821C111.716 44.9631 112.341 45.0909 113.044 45.0909ZM128.064 41H130.699V35.6733H133.383L136.238 41H139.179L136.032 35.233C137.744 34.544 138.646 33.081 138.646 31.1065C138.646 28.3295 136.856 26.4545 133.518 26.4545H128.064V41ZM130.699 33.4858V28.6562H133.113C135.081 28.6562 135.961 29.5582 135.961 31.1065C135.961 32.6548 135.081 33.4858 133.127 33.4858H130.699ZM145.631 41.2131C148.174 41.2131 149.921 39.9702 150.375 38.0739L147.975 37.804C147.627 38.7273 146.775 39.2102 145.667 39.2102C144.005 39.2102 142.904 38.1165 142.882 36.2486H150.482V35.4602C150.482 31.6321 148.181 29.9489 145.496 29.9489C142.371 29.9489 140.333 32.2429 140.333 35.6094C140.333 39.0327 142.343 41.2131 145.631 41.2131ZM142.89 34.5156C142.968 33.1236 143.998 31.9517 145.532 31.9517C147.009 31.9517 148.003 33.0312 148.017 34.5156H142.89ZM161.279 32.9744C160.924 31.1278 159.447 29.9489 156.89 29.9489C154.262 29.9489 152.472 31.2415 152.479 33.2585C152.472 34.8494 153.452 35.9006 155.548 36.3338L157.408 36.7244C158.41 36.9446 158.879 37.3494 158.879 37.9673C158.879 38.7131 158.069 39.2741 156.847 39.2741C155.668 39.2741 154.901 38.7628 154.681 37.7827L152.174 38.0241C152.494 40.027 154.177 41.2131 156.854 41.2131C159.582 41.2131 161.506 39.7997 161.513 37.733C161.506 36.1776 160.505 35.2259 158.445 34.7784L156.585 34.3807C155.477 34.1321 155.036 33.7486 155.043 33.1165C155.036 32.3778 155.853 31.8665 156.925 31.8665C158.112 31.8665 158.737 32.5128 158.935 33.2301L161.279 32.9744ZM170.587 36.4119C170.587 38.0739 169.401 38.8977 168.264 38.8977C167.028 38.8977 166.205 38.0241 166.205 36.6392V30.0909H163.634V37.0369C163.634 39.6577 165.125 41.142 167.27 41.142C168.903 41.142 170.054 40.2827 170.551 39.0611H170.665V41H173.158V30.0909H170.587V36.4119ZM175.801 41H178.373V34.3665C178.373 33.0241 179.267 32.1151 180.375 32.1151C181.462 32.1151 182.208 32.8466 182.208 33.9688V41H184.729V34.196C184.729 32.9673 185.461 32.1151 186.703 32.1151C187.74 32.1151 188.564 32.7259 188.564 34.0753V41H191.142V33.6776C191.142 31.2415 189.736 29.9489 187.733 29.9489C186.15 29.9489 184.942 30.7301 184.459 31.9446H184.346C183.926 30.7088 182.868 29.9489 181.398 29.9489C179.935 29.9489 178.841 30.7017 178.387 31.9446H178.259V30.0909H175.801V41ZM198.58 41.2131C201.123 41.2131 202.87 39.9702 203.325 38.0739L200.924 37.804C200.576 38.7273 199.724 39.2102 198.616 39.2102C196.954 39.2102 195.853 38.1165 195.832 36.2486H203.431V35.4602C203.431 31.6321 201.13 29.9489 198.445 29.9489C195.32 29.9489 193.282 32.2429 193.282 35.6094C193.282 39.0327 195.292 41.2131 198.58 41.2131ZM195.839 34.5156C195.917 33.1236 196.947 31.9517 198.481 31.9517C199.958 31.9517 200.952 33.0312 200.967 34.5156H195.839Z" fill="#05767E"/>
<path fill-rule="evenodd" clip-rule="evenodd" d="M37.0642 19.8333H48.9373C53.3133 19.8333 55.75 22.355 55.75 26.6758V41.31C55.75 45.7017 53.3133 48.1667 48.9373 48.1667H37.0642C32.7575 48.1667 30.25 45.7017 30.25 41.31V26.6758C30.25 22.355 32.7575 19.8333 37.0642 19.8333ZM37.4467 26.435V26.4209H41.6811C42.2917 26.4209 42.7875 26.9167 42.7875 27.5244C42.7875 28.1492 42.2917 28.645 41.6811 28.645H37.4467C36.8361 28.645 36.3417 28.1492 36.3417 27.54C36.3417 26.9309 36.8361 26.435 37.4467 26.435ZM37.4467 35.0484H48.5533C49.1625 35.0484 49.6583 34.5525 49.6583 33.9434C49.6583 33.3342 49.1625 32.8369 48.5533 32.8369H37.4467C36.8361 32.8369 36.3417 33.3342 36.3417 33.9434C36.3417 34.5525 36.8361 35.0484 37.4467 35.0484ZM37.4467 41.5225H48.5533C49.1186 41.4659 49.545 40.9828 49.545 40.4175C49.545 39.8367 49.1186 39.355 48.5533 39.2984H37.4467C37.0217 39.2559 36.6108 39.4542 36.3842 39.8225C36.1575 40.1767 36.1575 40.6442 36.3842 41.0125C36.6108 41.3667 37.0217 41.5792 37.4467 41.5225Z" fill="#05767E"/>
<rect opacity="0.2" x="73" y="24" width="2" height="20" rx="1" fill="#05767E"/>
<circle opacity="0.2" cx="354" cy="34" r="12" fill="#05767E"/>
<path d="M349.333 34H358.667" stroke="#05767E" stroke-width="1.4" stroke-linecap="round" stroke-linejoin="round"/>
<path d="M354 29.3333L358.667 34L354 38.6667" stroke="#05767E" stroke-width="1.4" stroke-linecap="round" stroke-linejoin="round"/>
</svg>
