<svg width="395" height="68" viewBox="0 0 395 68" fill="none" xmlns="http://www.w3.org/2000/svg">
<rect opacity="0.06" x="8" width="379" height="68" rx="16" fill="#056929"/>
<path d="M93.4347 26.4545V41H95.9631V30.9858H96.098L100.118 40.9574H102.007L106.027 31.0071H106.162V41H108.69V26.4545H105.466L101.148 36.9943H100.977L96.6591 26.4545H93.4347ZM113.044 45.0909C115.047 45.0909 116.205 44.0611 116.822 42.321L121.205 30.1051L118.456 30.0909L115.935 38.3295H115.821L113.307 30.0909H110.58L114.536 41.2273L114.315 41.8168C113.839 43.0597 113.087 43.1449 111.964 42.8182L111.368 44.821C111.716 44.9631 112.341 45.0909 113.044 45.0909ZM128.064 41H130.699V36.0852H133.483C136.842 36.0852 138.646 34.0682 138.646 31.2699C138.646 28.4929 136.863 26.4545 133.518 26.4545H128.064V41ZM130.699 33.919V28.6562H133.113C135.088 28.6562 135.961 29.7216 135.961 31.2699C135.961 32.8182 135.088 33.919 133.127 33.919H130.699ZM143.392 26.4545H140.821V41H143.392V26.4545ZM149.175 41.2202C150.887 41.2202 151.909 40.4176 152.378 39.5014H152.463V41H154.935V33.6989C154.935 30.8153 152.584 29.9489 150.503 29.9489C148.209 29.9489 146.448 30.9716 145.88 32.9602L148.28 33.3011C148.536 32.5554 149.26 31.9162 150.517 31.9162C151.711 31.9162 152.364 32.527 152.364 33.5994V33.642C152.364 34.3807 151.59 34.4162 149.665 34.6222C147.549 34.8494 145.525 35.4815 145.525 37.9389C145.525 40.0838 147.094 41.2202 149.175 41.2202ZM149.843 39.331C148.77 39.331 148.003 38.8409 148.003 37.8963C148.003 36.9091 148.863 36.4972 150.013 36.3338C150.688 36.2415 152.037 36.071 152.371 35.8011V37.0866C152.371 38.3011 151.391 39.331 149.843 39.331ZM158.728 45.0909C160.73 45.0909 161.888 44.0611 162.506 42.321L166.888 30.1051L164.14 30.0909L161.618 38.3295H161.505L158.99 30.0909H156.263L160.219 41.2273L159.999 41.8168C159.523 43.0597 158.77 43.1449 157.648 42.8182L157.051 44.821C157.4 44.9631 158.025 45.0909 158.728 45.0909ZM171.244 26.4545H168.673V41H171.244V26.4545ZM173.887 41H176.458V30.0909H173.887V41ZM175.18 28.5426C175.997 28.5426 176.664 27.9176 176.664 27.1506C176.664 26.3764 175.997 25.7514 175.18 25.7514C174.356 25.7514 173.689 26.3764 173.689 27.1506C173.689 27.9176 174.356 28.5426 175.18 28.5426ZM187.724 32.9744C187.369 31.1278 185.892 29.9489 183.335 29.9489C180.707 29.9489 178.918 31.2415 178.925 33.2585C178.918 34.8494 179.898 35.9006 181.993 36.3338L183.854 36.7244C184.855 36.9446 185.324 37.3494 185.324 37.9673C185.324 38.7131 184.514 39.2741 183.293 39.2741C182.114 39.2741 181.347 38.7628 181.126 37.7827L178.619 38.0241C178.939 40.027 180.622 41.2131 183.3 41.2131C186.027 41.2131 187.952 39.7997 187.959 37.733C187.952 36.1776 186.95 35.2259 184.891 34.7784L183.03 34.3807C181.922 34.1321 181.482 33.7486 181.489 33.1165C181.482 32.3778 182.298 31.8665 183.371 31.8665C184.557 31.8665 185.182 32.5128 185.381 33.2301L187.724 32.9744ZM195.526 30.0909H193.374V27.4773H190.803V30.0909H189.255V32.0795H190.803V38.1449C190.789 40.1974 192.281 41.206 194.212 41.1491C194.944 41.1278 195.448 40.9858 195.725 40.8935L195.292 38.8835C195.15 38.919 194.859 38.983 194.539 38.983C193.893 38.983 193.374 38.7557 193.374 37.7188V32.0795H195.526V30.0909ZM206.142 32.9744C205.787 31.1278 204.31 29.9489 201.753 29.9489C199.125 29.9489 197.336 31.2415 197.343 33.2585C197.336 34.8494 198.316 35.9006 200.411 36.3338L202.272 36.7244C203.273 36.9446 203.742 37.3494 203.742 37.9673C203.742 38.7131 202.932 39.2741 201.711 39.2741C200.532 39.2741 199.765 38.7628 199.544 37.7827L197.037 38.0241C197.357 40.027 199.04 41.2131 201.718 41.2131C204.445 41.2131 206.37 39.7997 206.377 37.733C206.37 36.1776 205.368 35.2259 203.309 34.7784L201.448 34.3807C200.34 34.1321 199.9 33.7486 199.907 33.1165C199.9 32.3778 200.716 31.8665 201.789 31.8665C202.975 31.8665 203.6 32.5128 203.799 33.2301L206.142 32.9744Z" fill="#056929"/>
<rect opacity="0.2" x="73" y="24" width="2" height="20" rx="1" fill="#056929"/>
<circle cx="43" cy="34" r="14" fill="#191414"/>
<path d="M43.0001 20.0002C35.2682 20.0002 29 26.2682 29 34.0001C29 41.7322 35.2682 48 43.0001 48C50.7329 48 57.0004 41.7324 57.0004 34.0001C57.0004 26.2686 50.7329 20.0008 42.9999 20.0008L43.0001 20V20.0002ZM49.4205 40.1923C49.1698 40.6035 48.6316 40.7341 48.2202 40.4814C44.9332 38.4736 40.7951 38.0189 35.9217 39.1324C35.4522 39.2393 34.9841 38.9451 34.877 38.4753C34.7694 38.0055 35.0626 37.5374 35.5334 37.4305C40.8665 36.2121 45.441 36.7367 49.1314 38.9919C49.5428 39.2443 49.6732 39.7809 49.4205 40.1923ZM51.1342 36.3803C50.8181 36.8937 50.1461 37.0559 49.6329 36.74C45.8696 34.4268 40.1333 33.7569 35.6821 35.1083C35.1048 35.2826 34.4952 34.9573 34.32 34.3811C34.1461 33.8038 34.4716 33.1954 35.0479 33.0198C40.1323 31.4771 46.4532 32.2243 50.7749 34.88C51.2881 35.1961 51.4502 35.8681 51.1344 36.3807V36.3805L51.1342 36.3803ZM51.2814 32.4108C46.769 29.7307 39.3246 29.4844 35.0166 30.7919C34.3249 31.0017 33.5932 30.6113 33.3836 29.9193C33.174 29.2271 33.5642 28.4961 34.2564 28.2859C39.2018 26.7846 47.4228 27.0746 52.6179 30.1587C53.2414 30.5281 53.4455 31.3316 53.0759 31.953C52.7079 32.5752 51.9022 32.7804 51.282 32.4108H51.2814Z" fill="#1ED760"/>
<circle opacity="0.14" cx="354" cy="34" r="12" fill="#056929"/>
<path d="M349.333 34H358.667" stroke="#056929" stroke-width="1.4" stroke-linecap="round" stroke-linejoin="round"/>
<path d="M354 29.3333L358.667 34L354 38.6667" stroke="#056929" stroke-width="1.4" stroke-linecap="round" stroke-linejoin="round"/>
</svg>
