<svg width="395" height="68" viewBox="0 0 395 68" fill="none" xmlns="http://www.w3.org/2000/svg">
<rect opacity="0.06" x="8" width="379" height="68" rx="16" fill="#1D34A6"/>
<path d="M94.4347 41H97.0696V35.6733H99.7543L102.609 41H105.55L102.403 35.233C104.115 34.544 105.017 33.081 105.017 31.1065C105.017 28.3295 103.227 26.4545 99.8892 26.4545H94.4347V41ZM97.0696 33.4858V28.6562H99.4844C101.452 28.6562 102.332 29.5582 102.332 31.1065C102.332 32.6548 101.452 33.4858 99.4986 33.4858H97.0696ZM116.636 41.2131C117.922 41.2131 119.349 40.8153 120.365 39.9347L121.295 41H124.08L121.949 38.5071C122.659 37.5554 123.213 36.142 123.213 34.1463H121.004C121.004 35.1051 120.777 35.9645 120.393 36.6818L117.737 33.571L118.653 32.8963C119.868 32.0156 120.585 30.9574 120.585 29.5795C120.585 27.804 119.186 26.277 116.892 26.277C114.591 26.277 113.078 27.804 113.078 29.8707C113.078 31.1705 113.732 32.2287 114.57 33.2656C112.95 34.3807 111.842 35.4247 111.842 37.1364C111.842 39.4517 113.661 41.2131 116.636 41.2131ZM118.966 38.3295C118.277 38.8267 117.489 39.0966 116.714 39.0966C115.287 39.0966 114.364 38.1733 114.364 37.0227C114.364 36.5185 114.747 35.7585 115.713 35.0483L115.947 34.8778L118.966 38.3295ZM116.423 32.0014C115.812 31.2486 115.372 30.5739 115.372 29.9062C115.372 29.1179 115.997 28.3864 116.928 28.3864C117.844 28.3864 118.405 29.0682 118.405 29.6932C118.405 30.4318 118.007 30.9503 117.247 31.4403L116.423 32.0014ZM135.555 41C139.987 41 142.615 38.2585 142.615 33.7131C142.615 29.1818 139.987 26.4545 135.654 26.4545H130.626V41H135.555ZM133.261 38.7202V28.7344H135.505C138.46 28.7344 140.001 30.3821 140.001 33.7131C140.001 37.0582 138.46 38.7202 135.427 38.7202H133.261ZM149.834 41.2131C152.377 41.2131 154.124 39.9702 154.578 38.0739L152.178 37.804C151.83 38.7273 150.978 39.2102 149.87 39.2102C148.208 39.2102 147.107 38.1165 147.086 36.2486H154.685V35.4602C154.685 31.6321 152.384 29.9489 149.699 29.9489C146.574 29.9489 144.536 32.2429 144.536 35.6094C144.536 39.0327 146.546 41.2131 149.834 41.2131ZM147.093 34.5156C147.171 33.1236 148.201 31.9517 149.735 31.9517C151.212 31.9517 152.206 33.0312 152.221 34.5156H147.093ZM165.482 32.9744C165.127 31.1278 163.65 29.9489 161.093 29.9489C158.465 29.9489 156.675 31.2415 156.683 33.2585C156.675 34.8494 157.656 35.9006 159.751 36.3338L161.612 36.7244C162.613 36.9446 163.082 37.3494 163.082 37.9673C163.082 38.7131 162.272 39.2741 161.05 39.2741C159.871 39.2741 159.104 38.7628 158.884 37.7827L156.377 38.0241C156.697 40.027 158.38 41.2131 161.058 41.2131C163.785 41.2131 165.71 39.7997 165.717 37.733C165.71 36.1776 164.708 35.2259 162.648 34.7784L160.788 34.3807C159.68 34.1321 159.239 33.7486 159.246 33.1165C159.239 32.3778 160.056 31.8665 161.129 31.8665C162.315 31.8665 162.94 32.5128 163.138 33.2301L165.482 32.9744ZM167.837 41H170.408V30.0909H167.837V41ZM169.129 28.5426C169.946 28.5426 170.614 27.9176 170.614 27.1506C170.614 26.3764 169.946 25.7514 169.129 25.7514C168.305 25.7514 167.638 26.3764 167.638 27.1506C167.638 27.9176 168.305 28.5426 169.129 28.5426ZM177.796 45.3182C180.743 45.3182 182.917 43.9688 182.917 41.1776V30.0909H180.381V31.8949H180.239C179.848 31.1065 179.032 29.9489 177.107 29.9489C174.586 29.9489 172.604 31.9233 172.604 35.5099C172.604 39.0682 174.586 40.8438 177.1 40.8438C178.968 40.8438 179.841 39.8423 180.239 39.0398H180.367V41.1065C180.367 42.7116 179.301 43.3722 177.838 43.3722C176.29 43.3722 175.608 42.6406 175.296 42.0014L172.98 42.5625C173.449 44.0895 175.019 45.3182 177.796 45.3182ZM177.817 38.8267C176.12 38.8267 175.225 37.5057 175.225 35.4957C175.225 33.5142 176.105 32.0582 177.817 32.0582C179.472 32.0582 180.381 33.429 180.381 35.4957C180.381 37.5767 179.458 38.8267 177.817 38.8267ZM188.123 34.608C188.123 33.0312 189.074 32.1222 190.431 32.1222C191.759 32.1222 192.554 32.9957 192.554 34.4517V41H195.125V34.054C195.132 31.4403 193.641 29.9489 191.39 29.9489C189.756 29.9489 188.634 30.7301 188.137 31.9446H188.009V30.0909H185.551V41H188.123V34.608ZM207.892 41.1989C211.002 41.1989 213.268 39.4162 213.261 36.9588C213.268 35.1406 212.132 33.8338 210.093 33.5426V33.429C211.67 33.0881 212.728 31.9162 212.721 30.2827C212.728 28.0668 210.839 26.2557 207.934 26.2557C205.108 26.2557 202.92 27.9389 202.863 30.375H205.399C205.441 29.1534 206.578 28.3935 207.92 28.3935C209.277 28.3935 210.179 29.2173 210.172 30.4389C210.179 31.7102 209.127 32.5554 207.622 32.5554H206.336V34.5866H207.622C209.461 34.5866 210.555 35.5099 210.548 36.8239C210.555 38.1094 209.44 38.9901 207.885 38.9901C206.422 38.9901 205.292 38.2301 205.228 37.044H202.558C202.629 39.5014 204.824 41.1989 207.892 41.1989ZM216.881 41.1562C217.719 41.1562 218.437 40.4602 218.444 39.5938C218.437 38.7415 217.719 38.0455 216.881 38.0455C216.015 38.0455 215.312 38.7415 215.319 39.5938C215.312 40.4602 216.015 41.1562 216.881 41.1562ZM225.88 41.277C229.388 41.2841 231.484 38.5142 231.484 33.7415C231.484 28.9972 229.374 26.2557 225.88 26.2557C222.386 26.2557 220.283 28.9901 220.276 33.7415C220.276 38.5071 222.371 41.277 225.88 41.277ZM225.88 39.054C224.069 39.054 222.933 37.2358 222.94 33.7415C222.947 30.2756 224.076 28.4503 225.88 28.4503C227.691 28.4503 228.82 30.2756 228.827 33.7415C228.827 37.2358 227.698 39.054 225.88 39.054Z" fill="#1D34A6"/>
<path fill-rule="evenodd" clip-rule="evenodd" d="M28.8332 34.0002C28.8332 26.1802 35.1657 19.8335 42.9999 19.8335C50.8199 19.8335 57.1665 26.1802 57.1665 34.0002C57.1665 41.8343 50.8199 48.1668 42.9999 48.1668C35.1657 48.1668 28.8332 41.8343 28.8332 34.0002ZM46.159 36.5927L48.454 29.3393C48.6099 28.8435 48.1565 28.376 47.6607 28.5318L40.4074 30.7985C40.1099 30.8977 39.869 31.1243 39.784 31.4218L37.5174 38.6893C37.3615 39.171 37.829 39.6385 38.3107 39.4827L45.5357 37.216C45.8332 37.131 46.074 36.8902 46.159 36.5927Z" fill="#1D34A6"/>
<rect opacity="0.2" x="73" y="24" width="2" height="20" rx="1" fill="#1D34A6"/>
<circle opacity="0.2" cx="354" cy="34" r="12" fill="#1D34A6"/>
<path d="M349.333 34H358.667" stroke="#1D34A6" stroke-width="1.4" stroke-linecap="round" stroke-linejoin="round"/>
<path d="M354 29.3333L358.667 34L354 38.6666" stroke="#1D34A6" stroke-width="1.4" stroke-linecap="round" stroke-linejoin="round"/>
</svg>
