<svg width="395" height="68" viewBox="0 0 395 68" fill="none" xmlns="http://www.w3.org/2000/svg">
<rect x="8" width="379" height="68" rx="16" fill="#DEDEDE"/>
<ellipse cx="44" cy="34" rx="21" ry="20" fill="#A6A6A6"/>
<path d="M88.0547 30.8118H90.0653C90.0046 28.5987 88.0479 26.9929 85.2411 26.9929C82.468 26.9929 80.3427 28.5785 80.3427 30.9602C80.3427 32.8832 81.7191 34.0099 83.9389 34.6104L85.5717 35.0558C87.0494 35.4471 88.1896 35.9329 88.1896 37.1609C88.1896 38.5103 86.9009 39.4009 85.1264 39.4009C83.5206 39.4009 82.1847 38.6857 82.0632 37.1811H79.9716C80.1065 39.6843 82.043 41.2294 85.1399 41.2294C88.3853 41.2294 90.2543 39.5224 90.2543 37.1811C90.2543 34.6914 88.0344 33.7266 86.2802 33.2947L84.9308 32.9439C83.8512 32.6673 82.4141 32.1612 82.4208 30.8388C82.4208 29.6648 83.4936 28.7944 85.1939 28.7944C86.7795 28.7944 87.9062 29.5366 88.0547 30.8118ZM95.5997 41.2294C97.3135 41.2294 98.2783 40.359 98.6629 39.5831H98.7439V41H100.714V34.1179C100.714 31.1019 98.339 30.5014 96.6927 30.5014C94.817 30.5014 93.0898 31.2571 92.415 33.1463L94.311 33.5781C94.6079 32.8427 95.3635 32.1342 96.7197 32.1342C98.0219 32.1342 98.6899 32.8157 98.6899 33.9897V34.0369C98.6899 34.7724 97.9342 34.7589 96.072 34.9748C94.1086 35.2042 92.0979 35.717 92.0979 38.0717C92.0979 40.1094 93.6295 41.2294 95.5997 41.2294ZM96.0383 39.6101C94.898 39.6101 94.0748 39.0973 94.0748 38.0987C94.0748 37.0192 95.0329 36.6346 96.2002 36.4794C96.8547 36.3917 98.4065 36.2163 98.6966 35.9261V37.2621C98.6966 38.4901 97.7183 39.6101 96.0383 39.6101ZM103.401 41H105.419V34.6104C105.419 33.2138 106.397 32.2422 107.544 32.2422C108.664 32.2422 109.44 32.9844 109.44 34.1112V41H111.45V34.3945C111.45 33.1463 112.213 32.2422 113.529 32.2422C114.595 32.2422 115.472 32.8359 115.472 34.2393V41H117.489V34.0504C117.489 31.6822 116.167 30.5014 114.291 30.5014C112.8 30.5014 111.68 31.2166 111.181 32.3232H111.073C110.621 31.1896 109.669 30.5014 108.286 30.5014C106.916 30.5014 105.898 31.1829 105.466 32.3232H105.338V30.6364H103.401V41ZM120.193 44.8864H122.21V39.3874H122.332C122.696 40.0487 123.438 41.2024 125.328 41.2024C127.838 41.2024 129.659 39.1918 129.659 35.8384C129.659 32.4783 127.811 30.5014 125.307 30.5014C123.384 30.5014 122.69 31.6754 122.332 32.3164H122.163V30.6364H120.193V44.8864ZM122.17 35.8182C122.17 33.6523 123.115 32.2152 124.876 32.2152C126.704 32.2152 127.622 33.7603 127.622 35.8182C127.622 37.8963 126.677 39.4819 124.876 39.4819C123.142 39.4819 122.17 37.9975 122.17 35.8182ZM133.937 27.1818H131.92V41H133.937V27.1818ZM141.118 41.2092C143.378 41.2092 144.977 40.0959 145.436 38.4091L143.526 38.065C143.162 39.0433 142.285 39.5426 141.138 39.5426C139.411 39.5426 138.25 38.4226 138.196 36.4254H145.564V35.7102C145.564 31.9656 143.324 30.5014 140.976 30.5014C138.088 30.5014 136.186 32.701 136.186 35.8857C136.186 39.104 138.061 41.2092 141.118 41.2092ZM138.203 34.9141C138.284 33.4432 139.35 32.168 140.99 32.168C142.555 32.168 143.58 33.3285 143.587 34.9141H138.203ZM160.529 30.8118H162.54C162.479 28.5987 160.523 26.9929 157.716 26.9929C154.943 26.9929 152.817 28.5785 152.817 30.9602C152.817 32.8832 154.194 34.0099 156.414 34.6104L158.046 35.0558C159.524 35.4471 160.664 35.9329 160.664 37.1609C160.664 38.5103 159.376 39.4009 157.601 39.4009C155.995 39.4009 154.659 38.6857 154.538 37.1811H152.446C152.581 39.6843 154.518 41.2294 157.615 41.2294C160.86 41.2294 162.729 39.5224 162.729 37.1811C162.729 34.6914 160.509 33.7266 158.755 33.2947L157.405 32.9439C156.326 32.6673 154.889 32.1612 154.895 30.8388C154.895 29.6648 155.968 28.7944 157.669 28.7944C159.254 28.7944 160.381 29.5366 160.529 30.8118ZM169.424 41.2092C172.345 41.2092 174.255 39.0703 174.255 35.8654C174.255 32.6403 172.345 30.5014 169.424 30.5014C166.502 30.5014 164.593 32.6403 164.593 35.8654C164.593 39.0703 166.502 41.2092 169.424 41.2092ZM169.43 39.5156C167.521 39.5156 166.63 37.8491 166.63 35.8587C166.63 33.875 167.521 32.1882 169.43 32.1882C171.326 32.1882 172.217 33.875 172.217 35.8587C172.217 37.8491 171.326 39.5156 169.43 39.5156ZM180.872 41.2092C183.321 41.2092 184.907 39.7383 185.129 37.7209H183.166C182.91 38.8409 182.039 39.5021 180.885 39.5021C179.178 39.5021 178.079 38.0785 178.079 35.8182C178.079 33.5984 179.199 32.2017 180.885 32.2017C182.167 32.2017 182.95 33.0114 183.166 33.983H185.129C184.914 31.8913 183.206 30.5014 180.852 30.5014C177.93 30.5014 176.041 32.701 176.041 35.8654C176.041 38.9893 177.863 41.2092 180.872 41.2092ZM187.287 41H189.304V30.6364H187.287V41ZM188.306 29.0373C189.001 29.0373 189.581 28.4975 189.581 27.8363C189.581 27.1751 189.001 26.6286 188.306 26.6286C187.604 26.6286 187.03 27.1751 187.03 27.8363C187.03 28.4975 187.604 29.0373 188.306 29.0373ZM195.034 41.2294C196.748 41.2294 197.713 40.359 198.097 39.5831H198.178V41H200.149V34.1179C200.149 31.1019 197.774 30.5014 196.127 30.5014C194.252 30.5014 192.524 31.2571 191.85 33.1463L193.746 33.5781C194.042 32.8427 194.798 32.1342 196.154 32.1342C197.456 32.1342 198.124 32.8157 198.124 33.9897V34.0369C198.124 34.7724 197.369 34.7589 195.507 34.9748C193.543 35.2042 191.532 35.717 191.532 38.0717C191.532 40.1094 193.064 41.2294 195.034 41.2294ZM195.473 39.6101C194.333 39.6101 193.509 39.0973 193.509 38.0987C193.509 37.0192 194.468 36.6346 195.635 36.4794C196.289 36.3917 197.841 36.2163 198.131 35.9261V37.2621C198.131 38.4901 197.153 39.6101 195.473 39.6101ZM204.853 27.1818H202.836V41H204.853V27.1818ZM212.757 41H221.104V39.2053H214.842V27.1818H212.757V41ZM223.32 41H225.337V30.6364H223.32V41ZM224.339 29.0373C225.034 29.0373 225.614 28.4975 225.614 27.8363C225.614 27.1751 225.034 26.6286 224.339 26.6286C223.637 26.6286 223.064 27.1751 223.064 27.8363C223.064 28.4975 223.637 29.0373 224.339 29.0373ZM230.069 34.8466C230.069 33.1935 231.081 32.2489 232.484 32.2489C233.854 32.2489 234.684 33.1463 234.684 34.6509V41H236.701V34.408C236.701 31.8441 235.291 30.5014 233.173 30.5014C231.614 30.5014 230.595 31.2234 230.116 32.3232H229.988V30.6364H228.051V41H230.069V34.8466ZM239.407 41H241.424V37.3228L242.43 36.3175L245.952 41H248.428L243.948 35.0827L248.145 30.6364H245.729L241.6 35.022H241.424V27.1818H239.407V41Z" fill="#A6A6A6"/>
</svg>
